<svg xmlns="http://www.w3.org/2000/svg" width="338" height="80" viewBox="0 0 338 80" version="1.1">
	<path d="M 166.035 20.934 C 164.274 24.224, 164.781 26.830, 167.250 27.180 C 169.391 27.484, 169.603 29.441, 167.500 29.481 C 165.543 29.518, 160 32.259, 160 33.189 C 160 34.555, 164.277 33.082, 165.750 31.208 C 167.520 28.956, 167.311 31.206, 165.532 33.559 C 163.819 35.823, 163.618 37, 164.943 37 C 165.462 37, 166.674 35.667, 167.637 34.038 C 168.989 31.748, 169.689 31.327, 170.717 32.180 C 172.360 33.543, 173.497 32.609, 172.378 30.817 C 170.861 28.386, 171.222 27.418, 173.725 27.211 C 175.568 27.058, 176.063 27.393, 175.637 28.502 C 175.263 29.477, 175.663 29.995, 176.781 29.985 C 178.768 29.967, 182.194 28.039, 180.281 28.015 C 179.562 28.006, 179.322 27.325, 179.695 26.351 C 180.244 24.923, 179.703 24.773, 175.648 25.230 C 172.921 25.538, 170.702 25.327, 170.330 24.724 C 169.961 24.127, 170.178 23.992, 170.845 24.405 C 171.480 24.797, 172 24.641, 172 24.059 C 172 22.745, 171.376 22.728, 169.034 23.982 C 167.661 24.716, 167.052 24.578, 166.611 23.430 C 166.275 22.554, 166.447 22.158, 167.011 22.507 C 167.555 22.843, 168 22.191, 168 21.059 C 168 18.482, 167.369 18.442, 166.035 20.934 M 283 21 C 285.008 22.298, 311.698 22.298, 312.500 21 C 312.902 20.349, 307.597 20.005, 297.309 20.015 C 286.733 20.026, 281.996 20.351, 283 21 M 274 21.554 C 273.175 21.732, 269.861 22.168, 266.636 22.525 C 263.266 22.897, 261.146 23.546, 261.651 24.051 C 262.156 24.556, 266.699 24.456, 272.334 23.816 C 278.349 23.133, 281.628 22.380, 280.819 21.867 C 279.518 21.042, 276.933 20.924, 274 21.554 M 198 23.777 C 194.918 25.198, 194.763 25.435, 196.698 25.758 C 199.145 26.167, 203 24.458, 203 22.965 C 203 21.705, 202.217 21.832, 198 23.777 M 313 22.500 C 313 22.775, 313.225 23, 313.500 23 C 313.775 23, 314 22.775, 314 22.500 C 314 22.225, 313.775 22, 313.500 22 C 313.225 22, 313 22.225, 313 22.500 M 132.834 25.750 C 132.219 27.262, 131.503 31.068, 131.241 34.206 L 130.766 39.912 123.864 44.082 C 120.068 46.376, 116.691 48.691, 116.360 49.226 C 116.029 49.761, 116.713 49.689, 117.879 49.065 C 119.046 48.440, 120 48.157, 120 48.435 C 120 48.712, 122.566 47.394, 125.702 45.505 C 128.838 43.616, 131.552 42.219, 131.733 42.400 C 131.914 42.581, 132.246 43.681, 132.470 44.844 C 132.694 46.007, 132.399 46.856, 131.814 46.730 C 131.229 46.603, 130.544 47.063, 130.292 47.750 C 129.655 49.485, 131.542 49.315, 133.386 47.471 C 134.227 46.630, 134.661 45.280, 134.351 44.471 C 134.040 43.662, 134.258 43, 134.836 43 C 135.413 43, 135.719 43.864, 135.515 44.921 C 135.312 45.977, 135.773 47.083, 136.541 47.377 C 138.113 47.981, 139.330 46.664, 138.223 45.556 C 136.995 44.329, 137.336 40.085, 138.704 39.560 C 139.417 39.287, 139.993 38.486, 139.985 37.781 C 139.973 36.796, 139.771 36.814, 139.110 37.857 C 138.581 38.691, 138.012 38.828, 137.631 38.212 C 137.290 37.660, 137.571 37.004, 138.256 36.752 C 140.582 35.897, 142 37.159, 142 40.083 C 142 41.688, 142.338 43.046, 142.750 43.101 C 147.432 43.735, 151 43.740, 151 43.114 C 151 42.689, 151.787 42.377, 152.750 42.421 C 153.713 42.464, 154.500 42.050, 154.500 41.500 C 154.500 40.950, 154.050 40.666, 153.500 40.869 C 152.950 41.072, 150.588 41.468, 148.250 41.749 L 144 42.260 144 38.661 C 144 35.686, 143.697 35.160, 142.250 35.626 C 140.773 36.101, 140.734 36.020, 142 35.110 C 143.270 34.196, 143.193 34.026, 141.500 34 C 139.841 33.975, 139.756 33.804, 141 33 C 142.282 32.172, 142.246 32.028, 140.750 32.015 C 139.787 32.007, 139 32.665, 139 33.477 C 139 34.898, 134.336 38.676, 133.558 37.885 C 133.349 37.673, 132.908 35.700, 132.578 33.500 C 132.194 30.934, 132.281 30.200, 132.824 31.453 C 133.562 33.159, 133.750 33.002, 134.307 30.214 C 134.658 28.458, 134.656 26.268, 134.303 25.347 C 133.835 24.129, 134.021 23.895, 134.985 24.490 C 135.866 25.035, 136.070 24.923, 135.595 24.155 C 134.537 22.442, 134.067 22.713, 132.834 25.750 M 187 24.571 C 187 24.886, 187.646 25.789, 188.436 26.579 C 189.956 28.099, 191.626 26.822, 190.500 25 C 189.848 23.945, 187 23.596, 187 24.571 M 199 24.500 C 199 24.775, 199.225 25, 199.500 25 C 199.775 25, 200 24.775, 200 24.500 C 200 24.225, 199.775 24, 199.500 24 C 199.225 24, 199 24.225, 199 24.500 M 251.500 25.369 C 247.938 26.052, 245.993 26.835, 246.712 27.296 C 248.301 28.312, 261.159 26.066, 260.437 24.898 C 259.783 23.841, 259.348 23.864, 251.500 25.369 M 148.274 26.271 C 148.611 27.151, 148.407 28.031, 147.819 28.227 C 147.157 28.448, 147.015 29.794, 147.448 31.763 C 148.013 34.334, 148.399 34.709, 149.468 33.721 C 150.195 33.050, 150.514 32.050, 150.176 31.500 C 149.838 30.950, 149.687 29.530, 149.840 28.346 C 149.993 27.161, 149.565 25.849, 148.889 25.431 C 148.046 24.910, 147.853 25.173, 148.274 26.271 M 133 27.500 C 133 27.775, 133.225 28, 133.500 28 C 133.775 28, 134 27.775, 134 27.500 C 134 27.225, 133.775 27, 133.500 27 C 133.225 27, 133 27.225, 133 27.500 M 228.806 30.290 C 221.274 31.985, 215.350 33.757, 215.640 34.226 C 215.930 34.696, 215.117 34.833, 213.834 34.530 C 212.550 34.228, 207.627 34.562, 202.892 35.272 L 194.285 36.563 195.701 33.174 C 197.173 29.650, 196.753 27.847, 194.893 29.707 C 194.302 30.298, 193.747 32.293, 193.659 34.141 L 193.500 37.500 201.051 37.276 C 207.881 37.074, 213.138 36.103, 238.206 30.416 C 242.445 29.454, 245.681 28.292, 245.397 27.834 C 244.710 26.722, 244.559 26.744, 228.806 30.290 M 168 28.500 C 168 28.775, 168.225 29, 168.500 29 C 168.775 29, 169 28.775, 169 28.500 C 169 28.225, 168.775 28, 168.500 28 C 168.225 28, 168 28.225, 168 28.500 M 143 31.950 C 143 33.023, 143.745 34.317, 144.654 34.827 C 145.637 35.376, 146.060 36.402, 145.695 37.352 C 145.198 38.648, 145.674 38.882, 148.202 38.588 C 151.519 38.202, 155.161 34.533, 154.731 32.011 C 154.428 30.234, 151 29.336, 151 31.034 C 151 31.683, 151.600 31.984, 152.333 31.702 C 153.067 31.421, 153.667 31.803, 153.667 32.551 C 153.667 33.300, 153.313 33.693, 152.881 33.426 C 152.449 33.159, 151.440 34.191, 150.639 35.719 L 149.184 38.497 147.853 35.499 C 146.496 32.438, 144.597 30, 143.571 30 C 143.257 30, 143 30.878, 143 31.950 M 185 31 C 185 31.550, 185.927 32, 187.059 32 C 188.191 32, 188.840 31.550, 188.500 31 C 188.160 30.450, 187.234 30, 186.441 30 C 185.648 30, 185 30.450, 185 31 M 195 30.500 C 195 30.775, 195.225 31, 195.500 31 C 195.775 31, 196 30.775, 196 30.500 C 196 30.225, 195.775 30, 195.500 30 C 195.225 30, 195 30.225, 195 30.500 M 174.687 32.646 C 174.309 33.025, 172.987 33.415, 171.750 33.513 C 169.719 33.674, 169.518 34.169, 169.685 38.596 C 169.842 42.732, 169.743 43.030, 169.054 40.500 L 168.237 37.500 168.118 40.523 C 168.006 43.405, 168.187 43.545, 172.020 43.545 C 174.750 43.545, 175.891 43.158, 175.576 42.337 C 175.321 41.673, 175.597 40.968, 176.189 40.770 C 176.820 40.560, 176.976 39.500, 176.566 38.207 C 175.960 36.299, 175.571 36.156, 173.683 37.146 L 171.500 38.291 173.465 36.079 C 175.344 33.964, 175.490 33.947, 176.794 35.684 C 178.061 37.371, 178.134 37.328, 177.829 35.078 C 177.494 32.613, 175.931 31.403, 174.687 32.646 M 145 33.500 C 145 33.775, 145.225 34, 145.500 34 C 145.775 34, 146 33.775, 146 33.500 C 146 33.225, 145.775 33, 145.500 33 C 145.225 33, 145 33.225, 145 33.500 M 186.605 35.890 C 185.082 37.480, 184.257 39.041, 184.773 39.359 C 185.654 39.904, 188.847 37.011, 190.410 34.250 C 191.701 31.971, 189.417 32.955, 186.605 35.890 M 194 33.500 C 194 33.775, 194.225 34, 194.500 34 C 194.775 34, 195 33.775, 195 33.500 C 195 33.225, 194.775 33, 194.500 33 C 194.225 33, 194 33.225, 194 33.500 M 157.245 37.979 C 155.770 40.341, 157.280 41.573, 159.044 39.447 C 159.830 38.499, 159.959 37.559, 159.383 36.983 C 158.806 36.406, 157.990 36.786, 157.245 37.979 M 157.405 39.155 C 156.962 39.870, 157.130 40.038, 157.845 39.595 C 158.998 38.883, 159.393 38, 158.559 38 C 158.316 38, 157.797 38.520, 157.405 39.155 M 185 38.500 C 185 38.775, 185.225 39, 185.500 39 C 185.775 39, 186 38.775, 186 38.500 C 186 38.225, 185.775 38, 185.500 38 C 185.225 38, 185 38.225, 185 38.500 M 132 40 C 132 40.733, 132.300 41.033, 132.667 40.667 C 133.033 40.300, 133.033 39.700, 132.667 39.333 C 132.300 38.967, 132 39.267, 132 40 M 172 40 C 170.707 40.835, 170.734 40.971, 172.191 40.985 C 173.121 40.993, 174.160 40.550, 174.500 40 C 175.282 38.734, 173.958 38.734, 172 40 M 85.333 40.667 C 85.700 41.033, 86.300 41.033, 86.667 40.667 C 87.033 40.300, 86.733 40, 86 40 C 85.267 40, 84.967 40.300, 85.333 40.667 M 134 41.059 C 134 41.641, 134.450 41.840, 135 41.500 C 135.550 41.160, 136 40.684, 136 40.441 C 136 40.198, 135.550 40, 135 40 C 134.450 40, 134 40.477, 134 41.059 M 89.333 41.667 C 89.700 42.033, 90.300 42.033, 90.667 41.667 C 91.033 41.300, 90.733 41, 90 41 C 89.267 41, 88.967 41.300, 89.333 41.667 M 93.333 42.667 C 93.700 43.033, 94.300 43.033, 94.667 42.667 C 95.033 42.300, 94.733 42, 94 42 C 93.267 42, 92.967 42.300, 93.333 42.667 M 97.333 43.667 C 97.700 44.033, 98.300 44.033, 98.667 43.667 C 99.033 43.300, 98.733 43, 98 43 C 97.267 43, 96.967 43.300, 97.333 43.667 M 100.333 44.667 C 100.700 45.033, 101.300 45.033, 101.667 44.667 C 102.033 44.300, 101.733 44, 101 44 C 100.267 44, 99.967 44.300, 100.333 44.667 M 105 45.500 C 105 45.775, 105.225 46, 105.500 46 C 105.775 46, 106 45.775, 106 45.500 C 106 45.225, 105.775 45, 105.500 45 C 105.225 45, 105 45.225, 105 45.500 M 237 47.622 C 237 49.840, 237.232 50.053, 238.500 49 C 239.325 48.315, 240 47.135, 240 46.378 C 240 45.620, 239.325 45, 238.500 45 C 237.548 45, 237 45.958, 237 47.622 M 241.688 45.646 C 240.272 47.061, 241.073 49, 243.073 49 C 244.471 49, 245.041 48.457, 244.823 47.333 C 244.466 45.492, 242.759 44.574, 241.688 45.646 M 246 46.810 C 246 47.897, 246.706 49.057, 247.569 49.388 C 248.743 49.839, 249.058 49.445, 248.819 47.823 C 248.409 45.037, 246 44.171, 246 46.810 M 252.651 46.468 C 252.257 47.494, 252.399 48.799, 252.967 49.367 C 253.678 50.078, 254.005 49.947, 254.015 48.950 C 254.028 47.717, 254.176 47.724, 255 49 C 255.744 50.151, 255.969 49.802, 255.969 47.500 C 255.969 45.430, 255.702 44.923, 255.106 45.863 C 254.404 46.971, 254.160 46.980, 253.805 45.914 C 253.505 45.014, 253.142 45.189, 252.651 46.468 M 258 46.500 C 258 47.325, 257.966 48.326, 257.925 48.725 C 257.884 49.124, 258.332 49.611, 258.921 49.807 C 259.530 50.010, 259.899 49.051, 259.777 47.582 C 259.553 44.865, 258 43.920, 258 46.500 M 262 47.385 C 262 49.279, 262.400 49.784, 263.549 49.343 C 265.322 48.662, 265.118 45.872, 263.250 45.250 C 262.468 44.989, 262 45.788, 262 47.385 M 273.180 47.250 C 273.356 48.487, 273.950 49.500, 274.500 49.500 C 275.050 49.500, 275.644 48.487, 275.820 47.250 C 276.039 45.702, 275.628 45, 274.500 45 C 273.372 45, 272.961 45.702, 273.180 47.250 M 277.389 46.570 C 277.725 47.447, 278 48.577, 278 49.082 C 278 49.587, 278.450 50, 279 50 C 280.647 50, 280.128 46.263, 278.389 45.596 C 277.209 45.143, 276.941 45.404, 277.389 46.570 M 284 47.621 C 284 49.320, 284.449 49.695, 286 49.290 C 287.100 49.002, 288 48.016, 288 47.098 C 288 46.095, 287.201 45.429, 286 45.429 C 284.608 45.429, 284 46.095, 284 47.621 M 289 46.893 C 289 47.934, 289.619 49.023, 290.375 49.314 C 291.308 49.672, 291.750 49.064, 291.750 47.421 C 291.750 46.033, 291.163 45, 290.375 45 C 289.619 45, 289 45.852, 289 46.893 M 293 46.917 C 293 48.145, 293.646 49, 294.573 49 C 295.505 49, 296.015 48.320, 295.823 47.333 C 295.337 44.824, 293 44.480, 293 46.917 M 109.333 46.667 C 109.700 47.033, 110.300 47.033, 110.667 46.667 C 111.033 46.300, 110.733 46, 110 46 C 109.267 46, 108.967 46.300, 109.333 46.667 M 137 46.500 C 137 46.775, 137.225 47, 137.500 47 C 137.775 47, 138 46.775, 138 46.500 C 138 46.225, 137.775 46, 137.500 46 C 137.225 46, 137 46.225, 137 46.500 M 242 47 C 242 47.733, 242.300 48.033, 242.667 47.667 C 243.033 47.300, 243.033 46.700, 242.667 46.333 C 242.300 45.967, 242 46.267, 242 47 M 113.333 47.667 C 113.700 48.033, 114.300 48.033, 114.667 47.667 C 115.033 47.300, 114.733 47, 114 47 C 113.267 47, 112.967 47.300, 113.333 47.667 M 123 49.500 C 123 49.775, 123.225 50, 123.500 50 C 123.775 50, 124 49.775, 124 49.500 C 124 49.225, 123.775 49, 123.500 49 C 123.225 49, 123 49.225, 123 49.500 M 127.333 50.667 C 127.700 51.033, 128.300 51.033, 128.667 50.667 C 129.033 50.300, 128.733 50, 128 50 C 127.267 50, 126.967 50.300, 127.333 50.667 M 131.813 51.683 C 132.534 51.972, 133.397 51.936, 133.729 51.604 C 134.061 51.272, 133.471 51.036, 132.417 51.079 C 131.252 51.127, 131.015 51.364, 131.813 51.683 M 110.333 52.667 C 110.700 53.033, 111.300 53.033, 111.667 52.667 C 112.033 52.300, 111.733 52, 111 52 C 110.267 52, 109.967 52.300, 110.333 52.667 M 138.333 52.667 C 138.700 53.033, 139.300 53.033, 139.667 52.667 C 140.033 52.300, 139.733 52, 139 52 C 138.267 52, 137.967 52.300, 138.333 52.667 M 142.813 53.683 C 143.534 53.972, 144.397 53.936, 144.729 53.604 C 145.061 53.272, 144.471 53.036, 143.417 53.079 C 142.252 53.127, 142.015 53.364, 142.813 53.683 M 148.813 54.683 C 149.534 54.972, 150.397 54.936, 150.729 54.604 C 151.061 54.272, 150.471 54.036, 149.417 54.079 C 148.252 54.127, 148.015 54.364, 148.813 54.683 M 103 55.500 C 103 55.775, 103.225 56, 103.500 56 C 103.775 56, 104 55.775, 104 55.500 C 104 55.225, 103.775 55, 103.500 55 C 103.225 55, 103 55.225, 103 55.500 M 155.813 55.683 C 156.534 55.972, 157.397 55.936, 157.729 55.604 C 158.061 55.272, 157.471 55.036, 156.417 55.079 C 155.252 55.127, 155.015 55.364, 155.813 55.683 M 161.333 56.667 C 161.700 57.033, 162.300 57.033, 162.667 56.667 C 163.033 56.300, 162.733 56, 162 56 C 161.267 56, 160.967 56.300, 161.333 56.667 M 167.750 57.662 C 168.438 57.940, 169.563 57.940, 170.250 57.662 C 170.938 57.385, 170.375 57.158, 169 57.158 C 167.625 57.158, 167.063 57.385, 167.750 57.662 M 175.333 58.667 C 175.700 59.033, 176.300 59.033, 176.667 58.667 C 177.033 58.300, 176.733 58, 176 58 C 175.267 58, 174.967 58.300, 175.333 58.667" stroke="none" fill="#d8bd84" fill-rule="evenodd"/>
<path d="M184 35 C218 34 257 16 316 21" fill="none" stroke="#d8bd84" stroke-width="1.15" stroke-linecap="round" stroke-linejoin="round"/></svg>